<?xml version="1.0" ?>
<svg height="626" version="1.1" width="626" xmlns="http://www.w3.org/2000/svg">
  <defs/>
  <g>
    <path d="M 408.4453430175781 191.39389038085938 C 353.08892822265625 183.33694458007812 376.45306396484375 136.59999084472656 289.5053405761719 133.47503662109375 C 256.79638671875 200.03726196289062 240.5561981201172 198.31382751464844 263.6331481933594 92.5584487915039 C 312.3624572753906 74.66846466064453 306.7933349609375 61.39879608154297 343.82183837890625 68.51978302001953 C 350.33636474609375 69.41709899902344 396.5991516113281 87.9336929321289 408.4453430175781 191.39389038085938" fill="rgb(54, 60, 95)" opacity="0.91605526" stroke="rgb(54, 159, 104)" stroke-linecap="round" stroke-linejoin="round" stroke-opacity="0.65181214" stroke-width="0.0"/>
    <path d="M 391.98193359375 230.02090454101562 C 413.5355224609375 249.05125427246094 409.9353332519531 268.9985046386719 397.48248291015625 274.93963623046875 C 345.4183044433594 226.10960388183594 361.3970947265625 217.98440551757812 329.1483459472656 218.45787048339844 C 328.14453125 194.35433959960938 346.1383972167969 190.70863342285156 372.21142578125 169.57493591308594 C 410.5284423828125 171.83531188964844 419.5392150878906 183.52041625976562 391.98193359375 230.02090454101562" fill="rgb(75, 82, 111)" opacity="1.0" stroke="rgb(241, 117, 9)" stroke-linecap="round" stroke-linejoin="round" stroke-opacity="0.49707782" stroke-width="0.0"/>
    <path d="M 326.6470947265625 211.95423889160156 C 318.7846984863281 224.4025115966797 282.0840148925781 210.74932861328125 290.8542175292969 253.79286193847656 C 232.20191955566406 279.3922424316406 250.28126525878906 266.1942138671875 242.32650756835938 212.6270751953125 C 241.12704467773438 188.8100128173828 247.88816833496094 187.55079650878906 239.43460083007812 150.37484741210938 C 295.0701599121094 169.58396911621094 296.0408935546875 184.7243194580078 326.6470947265625 211.95423889160156" fill="rgb(64, 65, 94)" opacity="0.72368914" stroke="rgb(43, 145, 128)" stroke-linecap="round" stroke-linejoin="round" stroke-opacity="0.45581" stroke-width="0.0"/>
  </g>
</svg>
