<?xml version="1.0" ?>
<svg height="626" version="1.1" width="626" xmlns="http://www.w3.org/2000/svg">
  <defs/>
  <g>
    <path d="M 408.02178955078125 190.65504455566406 C 353.4333190917969 183.1730194091797 374.90777587890625 135.7795867919922 289.0928649902344 133.55691528320312 C 257.2649230957031 200.95115661621094 239.40350341796875 198.6435089111328 263.8606262207031 92.37610626220703 C 312.5724792480469 74.69760131835938 306.70904541015625 61.20846176147461 344.163818359375 68.619873046875 C 349.6059265136719 68.71536254882812 397.5920104980469 89.16708374023438 408.02178955078125 190.65504455566406" fill="rgb(55, 61, 95)" opacity="0.9044447" stroke="rgb(54, 159, 104)" stroke-linecap="round" stroke-linejoin="round" stroke-opacity="0.65181214" stroke-width="0.0"/>
    <path d="M 390.6570129394531 231.30825805664062 C 415.515380859375 246.2705841064453 406.5008544921875 266.47637939453125 398.15570068359375 275.926513671875 C 344.4932861328125 224.32394409179688 361.0740051269531 218.88775634765625 330.63104248046875 218.46414184570312 C 324.77276611328125 194.5497589111328 346.7267150878906 194.7334747314453 370.5909118652344 169.6832275390625 C 407.6402893066406 172.0832977294922 419.9463806152344 185.996826171875 390.6570129394531 231.30825805664062" fill="rgb(66, 76, 106)" opacity="1.0" stroke="rgb(241, 117, 9)" stroke-linecap="round" stroke-linejoin="round" stroke-opacity="0.49707782" stroke-width="0.0"/>
    <path d="M 326.23150634765625 206.8953399658203 C 318.1317443847656 231.47227478027344 274.9053649902344 205.49905395507812 300.2811279296875 257.6974792480469 C 215.3825225830078 286.8846130371094 257.0190124511719 277.8008728027344 242.97642517089844 213.8893280029297 C 239.41845703125 194.7785186767578 245.5351104736328 194.69195556640625 240.73948669433594 141.35108947753906 C 285.8949279785156 170.0663604736328 292.4466247558594 188.01388549804688 326.23150634765625 206.8953399658203" fill="rgb(34, 48, 76)" opacity="0.61819214" stroke="rgb(43, 145, 128)" stroke-linecap="round" stroke-linejoin="round" stroke-opacity="0.45581" stroke-width="0.0"/>
    <path d="M 161.4164276123047 555.5441284179688 C 129.65133666992188 560.2858276367188 121.2564697265625 560.4746704101562 86.68840026855469 550.9465942382812 C 62.66352844238281 542.6788940429688 42.6823844909668 528.7068481445312 37.25644302368164 507.4751281738281 C 56.952728271484375 497.9499206542969 62.27444839477539 485.41680908203125 142.0099334716797 470.994873046875 C 150.8372802734375 484.5162353515625 158.59498596191406 477.28582763671875 161.4164276123047 555.5441284179688" fill="rgb(46, 72, 107)" opacity="0.88998073" stroke="rgb(124, 166, 13)" stroke-linecap="round" stroke-linejoin="round" stroke-opacity="0.17695762" stroke-width="0.0"/>
  </g>
</svg>
