<?xml version="1.0" ?>
<svg height="626" version="1.1" width="626" xmlns="http://www.w3.org/2000/svg">
  <defs/>
  <g>
    <path d="M 407.7080993652344 190.2649688720703 C 353.4075927734375 183.11338806152344 374.2009582519531 135.14842224121094 289.15679931640625 132.8111572265625 C 257.64404296875 201.35227966308594 239.17335510253906 198.85321044921875 264.0963439941406 92.32636260986328 C 312.94036865234375 74.95297241210938 307.0400085449219 61.26236343383789 343.6849365234375 68.78016662597656 C 348.56488037109375 69.52420043945312 397.8709411621094 90.77372741699219 407.7080993652344 190.2649688720703" fill="rgb(56, 62, 97)" opacity="0.89567035" stroke="rgb(54, 159, 104)" stroke-linecap="round" stroke-linejoin="round" stroke-opacity="0.65181214" stroke-width="0.0"/>
    <path d="M 390.3824462890625 231.49697875976562 C 415.97381591796875 246.5291290283203 406.14495849609375 265.97918701171875 398.3102722167969 276.0596618652344 C 344.331298828125 223.5165252685547 360.7021484375 218.95945739746094 331.02423095703125 218.4728546142578 C 323.755859375 194.63546752929688 346.84600830078125 196.62503051757812 369.8503112792969 169.86224365234375 C 405.31597900390625 172.54287719726562 420.0888977050781 188.02310180664062 390.3824462890625 231.49697875976562" fill="rgb(61, 71, 103)" opacity="1.0" stroke="rgb(241, 117, 9)" stroke-linecap="round" stroke-linejoin="round" stroke-opacity="0.49707782" stroke-width="0.0"/>
    <path d="M 325.08868408203125 204.6069793701172 C 319.6377868652344 233.8330841064453 274.5918884277344 204.1396026611328 300.16363525390625 257.1884460449219 C 210.61709594726562 285.92974853515625 259.640869140625 277.4645690917969 243.27972412109375 214.52554321289062 C 238.92442321777344 200.11070251464844 245.87939453125 197.604248046875 240.60206604003906 139.1887969970703 C 284.13525390625 170.17323303222656 289.17376708984375 190.071533203125 325.08868408203125 204.6069793701172" fill="rgb(19, 37, 69)" opacity="0.6089494" stroke="rgb(43, 145, 128)" stroke-linecap="round" stroke-linejoin="round" stroke-opacity="0.45581" stroke-width="0.0"/>
    <path d="M 168.3422088623047 556.4527587890625 C 130.26356506347656 558.9237670898438 120.06256866455078 561.0465698242188 86.93372344970703 550.9921875 C 62.86642837524414 542.9901733398438 42.11805725097656 528.3638305664062 37.15162658691406 507.1518249511719 C 58.31332015991211 499.079833984375 62.7755241394043 481.4211120605469 147.71261596679688 461.7587585449219 C 157.86911010742188 476.36474609375 166.56300354003906 467.0804443359375 168.3422088623047 556.4527587890625" fill="rgb(54, 86, 117)" opacity="0.84112525" stroke="rgb(124, 166, 13)" stroke-linecap="round" stroke-linejoin="round" stroke-opacity="0.17695762" stroke-width="0.0"/>
    <path d="M 394.7788391113281 173.60543823242188 C 332.7596740722656 152.51156616210938 350.758544921875 116.91520690917969 304.6865234375 136.88101196289062 C 284.5652160644531 121.43880462646484 253.751953125 133.05972290039062 261.5827941894531 99.55014038085938 C 304.51220703125 81.65733337402344 294.3928527832031 66.09207153320312 336.5780334472656 67.0538558959961 C 362.4123229980469 75.23190307617188 373.38201904296875 69.14032745361328 394.7788391113281 173.60543823242188" fill="rgb(0, 14, 60)" opacity="0.78422797" stroke="rgb(207, 250, 15)" stroke-linecap="round" stroke-linejoin="round" stroke-opacity="0.22211072" stroke-width="0.0"/>
  </g>
</svg>
