<?xml version="1.0" ?>
<svg height="626" version="1.1" width="626" xmlns="http://www.w3.org/2000/svg">
  <defs/>
  <g>
    <path d="M 408.7880859375 193.13934326171875 C 351.2444152832031 183.8150177001953 379.4840393066406 138.49095153808594 291.37567138671875 133.5160675048828 C 255.28953552246094 195.47100830078125 244.2395782470703 195.41151428222656 263.24591064453125 92.83037567138672 C 311.6727294921875 74.74223327636719 306.9671325683594 61.700218200683594 343.5553283691406 68.29542541503906 C 352.5234069824219 71.77681732177734 394.5513000488281 84.39229583740234 408.7880859375 193.13934326171875" fill="rgb(57, 63, 96)" opacity="0.92615306" stroke="rgb(54, 159, 104)" stroke-linecap="round" stroke-linejoin="round" stroke-opacity="0.65181214" stroke-width="0.0"/>
    <path d="M 397.4679260253906 223.43612670898438 C 407.3173828125 264.8250427246094 423.7519836425781 276.4750671386719 396.4676208496094 274.1180725097656 C 347.4563903808594 228.9082794189453 359.03131103515625 214.41770935058594 327.05218505859375 219.48597717285156 C 332.8387756347656 191.0814666748047 343.2703552246094 185.25474548339844 376.2154846191406 169.6504364013672 C 411.8979797363281 172.9009246826172 414.9824523925781 180.35516357421875 397.4679260253906 223.43612670898438" fill="rgb(87, 95, 120)" opacity="0.9557622" stroke="rgb(241, 117, 9)" stroke-linecap="round" stroke-linejoin="round" stroke-opacity="0.49707782" stroke-width="0.0"/>
    <path d="M 282.0 213.0 C 281.33013916015625 215.5 279.5 217.3301239013672 277.0 218.0 C 274.5 217.3301239013672 272.66986083984375 215.5 272.0 213.0 C 272.66986083984375 210.5 274.5 208.6698760986328 277.0 208.0 C 279.5 208.6698760986328 281.33013916015625 210.5 282.0 213.0" fill="rgb(14, 27, 71)" opacity="1.0" stroke="rgb(43, 145, 128)" stroke-linecap="round" stroke-linejoin="round" stroke-opacity="0.45581" stroke-width="0.0"/>
  </g>
</svg>
